<?xml version="1.0" encoding="utf-8"?>
<!-- Generator: Adobe Illustrator 24.3.0, SVG Export Plug-In . SVG Version: 6.00 Build 0)  -->
<svg version="1.1" id="Ebene_1" xmlns="http://www.w3.org/2000/svg" xmlns:xlink="http://www.w3.org/1999/xlink" x="0px" y="0px"
	 viewBox="0 0 2500 2500" style="enable-background:new 0 0 2500 2500;" xml:space="preserve">
<style type="text/css">
	.st0{fill:#FFFFFF;}
	.st1{fill:url(#SVGID_1_);}
	.st2{fill:url(#SVGID_2_);}
	.st3{opacity:5.000000e-02;enable-background:new    ;}
</style>
<path class="st0" d="M363.7,497.4l166.2,1800.4l720.2,193.9l720.2-193.9l166.2-1800.4L363.7,497.4L363.7,497.4z M1779.4,1080.7
	L1250,1307.2v0.8h510.7l-58.7,674.2L1250.1,2114h-0.2l-0.7-0.2v0.2l-454.3-134.3l-29.3-339.5h0.8l0,0h224.7l14.7,175.9l241.5,60.9
	l2.1-0.6v0.2l0.7-0.2l249.3-70.2l17.1-283.4L1250,1522h-0.7l0,0l-497.5-1.6H751l-17.1-212.5l0,0l515.4-214.7l0.7-0.2l29.4-12.3h-565
	l-26.9-217.4h1113.9L1779.4,1080.7z"/>
<path class="st0" d="M841.3,232.9V125.7h156.4V8.4H724v331.4h273.6V232.9H841.3z M1278.8,125.7h109.3V8.4h-273.6v117.2
	c36.6,36.6,55.7,54.1,108.7,107.1c-31,0-108.7,0.1-108.7,0.1v106.9h273.6V232.9L1278.8,125.7L1278.8,125.7z M1666.6,125.7H1776V8.4
	h-273.6v117.2c36.6,36.6,55.7,54.1,108.7,107.1c-31,0-108.7,0.1-108.7,0.1v106.9H1776V232.9L1666.6,125.7L1666.6,125.7z"/>
<polygon class="st0" points="751.8,1520.2 751,1520.5 733.9,1308 734.7,1308 "/>
<linearGradient id="SVGID_1_" gradientUnits="userSpaceOnUse" x1="742.8725" y1="979.494" x2="742.8725" y2="1192.0262" gradientTransform="matrix(1 0 0 -1 0 2500)">
	<stop  offset="0.387" style="stop-color:#D1D3D4;stop-opacity:0"/>
	<stop  offset="1" style="stop-color:#D1D3D4"/>
</linearGradient>
<polygon class="st1" points="751.8,1520.2 751,1520.5 733.9,1308 734.7,1308 "/>
<linearGradient id="SVGID_2_" gradientUnits="userSpaceOnUse" x1="766.5062" y1="741.3349" x2="1247.2664" y2="741.3349" gradientTransform="matrix(1 0 0 -1 0 2500)">
	<stop  offset="0" style="stop-color:#E8E7E5"/>
	<stop  offset="1" style="stop-color:#FFFFFF"/>
</linearGradient>
<polygon class="st2" points="1247.3,1877 1246.9,1877.1 1005,1816.1 990.4,1640.2 766.5,1640.2 766.5,1640.2 991.2,1640.2 
	1005.9,1816.1 "/>
<path class="st3" d="M1247.3,1877l0.5,0.1l1.6-0.5v-0.2L1247.3,1877z M795.8,1979.7l-29.3-339.5h-0.8l29.3,339.5l454.3,134.3v-0.2
	L795.8,1979.7z M751.8,1520.2L734.7,1308h-0.8l17.1,212.5h0.8V1520.2z M751.8,1520.5l497.5,1.6l0,0L751.8,1520.5z"/>
</svg>
